<?xml version="1.0" encoding="UTF-8"?>
<svg id="Capa_1" xmlns="http://www.w3.org/2000/svg" viewBox="0 0 1716 121.16">
  <defs>
    <style>
      .cls-1 {
        fill: #3336b8;
      }

      .cls-2 {
        fill: none;
        stroke: #3336b8;
        stroke-miterlimit: 10;
        stroke-width: 5px;
      }
    </style>
  </defs>
  <g>
    <path class="cls-1" d="M60.22,121.16c-20.13,0-35.19-4.28-45.2-12.84C5.01,99.75,0,86.86,0,69.64c0-11.22,2.52-20.67,7.55-28.37,5.03-7.68,12.24-13.47,21.62-17.35,9.39-3.87,20.56-5.8,33.52-5.8,8.99,0,17.05.7,24.16,2.11,7.11,1.41,13.15,3.59,18.13,6.54s8.78,6.7,11.39,11.25c2.62,4.55,3.92,9.96,3.92,16.25h-12.48c0-5.23-1.23-9.49-3.7-12.78-2.47-3.29-5.83-5.83-10.09-7.62-4.26-1.79-9.04-3.05-14.37-3.77-5.32-.72-10.84-1.08-16.55-1.08-6.68,0-13.01.67-19.02,2.03-6,1.36-11.34,3.54-16.04,6.54-4.7,3-8.34,7-10.96,11.98-2.6,4.98-3.92,11.01-3.92,18.07v3.49c0,9.58,2,17.22,6.03,22.93,4.01,5.72,9.53,9.81,16.55,12.34,7.01,2.52,15.07,3.77,24.16,3.77,11.89,0,21.33-1.26,28.29-3.77,6.96-2.52,11.98-6.08,15.02-10.66,3.05-4.6,4.57-9.94,4.57-16.04v-2.33h-47.16v-10.75h59.79v52.83h-9.29l-1.59-15.38c-3.39,4.26-7.7,7.65-12.91,10.16-5.23,2.52-10.96,4.31-17.2,5.37-6.23,1.02-12.63,1.56-19.22,1.56"/>
    <rect class="cls-1" x="151.79" y="19.85" width="12.78" height="99.55"/>
    <path class="cls-1" d="M255.41,121.16c-12.78,0-23.85-1.97-33.24-5.88s-16.59-9.7-21.62-17.35c-5.03-7.65-7.55-17.07-7.55-28.29s2.51-20.77,7.55-28.37c5.03-7.6,12.24-13.35,21.62-17.27,9.39-3.92,20.46-5.88,33.24-5.88s24.11,1.97,33.45,5.88c9.34,3.92,16.51,9.68,21.56,17.27,5.03,7.6,7.55,17.05,7.55,28.37s-2.52,20.66-7.55,28.29c-5.03,7.65-12.22,13.42-21.56,17.35-9.34,3.92-20.48,5.88-33.45,5.88M255.56,110.12c6.96,0,13.42-.72,19.38-2.18,5.95-1.46,11.14-3.72,15.6-6.81,4.46-3.1,7.93-7.13,10.45-12.12,2.52-4.98,3.77-10.96,3.77-17.92v-3.19c0-6.86-1.26-12.76-3.77-17.71-2.52-4.93-6-8.94-10.45-12.04-4.46-3.1-9.65-5.39-15.6-6.9-5.95-1.49-12.4-2.24-19.38-2.24s-13.42.75-19.38,2.24c-5.95,1.51-11.21,3.8-15.74,6.9-4.55,3.1-8.06,7.11-10.52,12.04-2.47,4.93-3.7,10.83-3.7,17.71v3.19c0,6.96,1.23,12.94,3.7,17.92,2.47,4.98,5.98,9.03,10.52,12.12,4.55,3.1,9.8,5.37,15.74,6.81,5.96,1.46,12.42,2.18,19.38,2.18"/>
    <path class="cls-1" d="M375.14,119.41l-48.18-99.55h14.37l31.78,66.61c.87,1.65,1.88,3.72,3.05,6.24,1.16,2.52,2.38,5.08,3.64,7.7,1.26,2.6,2.38,4.93,3.34,6.96h1.46c.87-1.93,1.88-4.18,3.05-6.75,1.16-2.56,2.34-5.09,3.55-7.62,1.21-2.52,2.24-4.65,3.13-6.39l31.78-66.76h13.79l-48.18,99.55h-16.58Z"/>
    <polygon class="cls-1" points="459.02 119.41 459.02 19.85 555.95 19.85 555.95 30.75 471.78 30.75 471.78 62.81 547.83 62.81 547.83 73.85 471.78 73.85 471.78 108.38 557.11 108.38 557.11 119.41 459.02 119.41"/>
    <path class="cls-1" d="M585.42,119.41V19.85h12.78l66.18,68.35c1.06,1.06,2.24,2.33,3.55,3.77,1.31,1.46,2.6,2.85,3.92,4.21s2.44,2.57,3.41,3.64h1.02c0-1.64-.02-3.8-.07-6.45-.05-2.65-.07-5.05-.07-7.18V19.87h12.48v99.55h-11.76l-66.76-69.08c-2.03-2.13-4.11-4.37-6.24-6.75-2.13-2.38-3.82-4.23-5.08-5.59h-1.02c0,1.83.02,4.26.07,7.26.05,3,.07,5.8.07,8.42v65.74h-12.48v-.02Z"/>
    <polygon class="cls-1" points="754.63 119.41 754.63 31.17 709.2 31.17 709.2 19.85 812.82 19.85 812.82 31.17 767.39 31.17 767.39 119.41 754.63 119.41"/>
    <path class="cls-1" d="M883.34,121.16c-11.71,0-21.36-1.82-28.95-5.44-7.6-3.64-13.24-8.83-16.91-15.6-3.69-6.77-5.52-14.81-5.52-24.08V19.89h12.91v56.6c0,10.84,3.31,19.15,9.94,24.97,6.62,5.8,16.14,8.72,28.52,8.72s21.92-2.9,28.59-8.72c6.67-5.8,10.01-14.12,10.01-24.97V19.89h12.78v56.16c0,9.29-1.83,17.32-5.52,24.08-3.67,6.78-9.3,11.98-16.91,15.6-7.58,3.62-17.23,5.44-28.95,5.44M884.37,19.15l-21.48-18.58v-.57h15.38l16.84,19.15h-10.75Z"/>
  </g>
  <g>
    <path class="cls-1" d="M1044.14,61.82V20.8h21.32c5.01,0,9.3.79,12.87,2.36,3.56,1.57,6.31,3.88,8.24,6.93,1.93,3.05,2.9,6.8,2.9,11.25s-.97,8.2-2.9,11.23c-1.93,3.03-4.68,5.32-8.24,6.9-3.56,1.57-7.85,2.36-12.87,2.36h-21.32ZM1051.84,55.31h13.26c2.35,0,4.52-.26,6.51-.78,1.99-.52,3.72-1.32,5.2-2.42,1.47-1.09,2.63-2.49,3.46-4.18.84-1.69,1.25-3.67,1.25-5.94v-1.37c0-2.27-.42-4.24-1.25-5.91-.84-1.67-1.99-3.05-3.46-4.15-1.47-1.09-3.2-1.91-5.2-2.45s-4.16-.81-6.51-.81h-13.26v28Z"/>
    <path class="cls-1" d="M1105.94,61.82V20.8h40.9v6.51h-33.2v10.33h29.74v6.51h-29.74v11.17h33.68v6.51h-41.38Z"/>
    <path class="cls-1" d="M1163.74,61.82V20.8h31.59c2.79,0,5.11.57,6.96,1.7,1.85,1.13,3.23,2.65,4.15,4.54.91,1.89,1.37,4.01,1.37,6.36,0,2.47-.65,4.76-1.94,6.87-1.29,2.11-3.23,3.7-5.82,4.78l8.78,16.78h-8.66l-7.82-15.35h-20.9v15.35h-7.7ZM1171.44,40.03h21.91c2.07,0,3.68-.61,4.84-1.82,1.15-1.21,1.73-2.78,1.73-4.69,0-1.31-.25-2.43-.75-3.34-.5-.92-1.24-1.62-2.24-2.12-1-.5-2.19-.75-3.58-.75h-21.91v12.72Z"/>
    <path class="cls-1" d="M1224.1,61.82V20.8h11.82l10.99,23.53c.28.6.64,1.42,1.07,2.48.44,1.05.89,2.14,1.34,3.25.46,1.12.88,2.15,1.28,3.11h.36c.36-.84.76-1.79,1.19-2.87.44-1.07.89-2.14,1.34-3.19.46-1.05.84-1.94,1.16-2.66l10.99-23.65h11.64v41.02h-7.76v-25.73c0-.72,0-1.51.03-2.39.02-.88.05-1.75.09-2.63.04-.88.08-1.63.12-2.27h-.48c-.2.6-.46,1.29-.78,2.09-.32.8-.65,1.59-.98,2.39-.34.8-.65,1.49-.93,2.09l-12.24,26.45h-7.58l-12.3-26.45c-.36-.76-.72-1.54-1.07-2.36-.36-.82-.67-1.59-.93-2.33-.26-.74-.49-1.36-.69-1.88h-.48c.04.56.07,1.25.09,2.09.02.84.04,1.7.06,2.6.02.9.03,1.76.03,2.6v25.73h-7.41Z"/>
    <path class="cls-1" d="M1291.04,61.82l20.72-41.02h8.78l20.72,41.02h-8.48l-4.42-8.84h-24.96l-4.42,8.84h-7.94ZM1306.5,46.66h18.75l-5.43-11.17c-.2-.44-.49-1.07-.86-1.88-.38-.82-.76-1.66-1.14-2.54-.38-.88-.73-1.65-1.04-2.33-.32-.68-.54-1.1-.66-1.26h-.48c-.36.8-.78,1.72-1.25,2.78-.48,1.05-.94,2.06-1.37,3.01s-.8,1.71-1.07,2.27l-5.43,11.11Z"/>
    <path class="cls-1" d="M1360.9,61.82V27.61h-18.39v-6.81h44.48v6.81h-18.39v34.21h-7.7Z"/>
    <path class="cls-1" d="M1423.6,62.54c-5.37,0-10.01-.82-13.91-2.45-3.9-1.63-6.91-4.03-9.02-7.2-2.11-3.17-3.17-7.02-3.17-11.56s1.05-8.49,3.17-11.61c2.11-3.12,5.12-5.51,9.02-7.17,3.9-1.65,8.54-2.48,13.91-2.48s10.08.83,14,2.48c3.92,1.65,6.93,4.04,9.02,7.17,2.09,3.13,3.13,7,3.13,11.61s-1.05,8.39-3.13,11.56c-2.09,3.16-5.1,5.56-9.02,7.2-3.92,1.63-8.59,2.45-14,2.45ZM1423.66,56.03c2.59,0,4.99-.28,7.2-.84,2.21-.56,4.14-1.41,5.79-2.57,1.65-1.15,2.94-2.63,3.85-4.42.92-1.79,1.37-3.88,1.37-6.27v-1.37c0-2.35-.46-4.41-1.37-6.18-.91-1.77-2.2-3.23-3.85-4.39-1.65-1.15-3.58-2.01-5.79-2.57-2.21-.56-4.61-.84-7.2-.84s-5.05.28-7.25.84c-2.21.56-4.14,1.41-5.79,2.57-1.65,1.15-2.93,2.62-3.82,4.39-.9,1.77-1.34,3.83-1.34,6.18v1.37c0,2.39.45,4.48,1.34,6.27.9,1.79,2.17,3.26,3.82,4.42s3.58,2.01,5.79,2.57c2.21.56,4.63.84,7.25.84Z"/>
    <path class="cls-1" d="M1466.23,61.82V20.8h7.7v34.21h25.85v6.81h-33.56Z"/>
    <path class="cls-1" d="M1535.2,62.54c-5.37,0-10.01-.82-13.91-2.45-3.9-1.63-6.91-4.03-9.02-7.2-2.11-3.17-3.17-7.02-3.17-11.56s1.05-8.49,3.17-11.61c2.11-3.12,5.12-5.51,9.02-7.17,3.9-1.65,8.54-2.48,13.91-2.48s10.08.83,14,2.48c3.92,1.65,6.93,4.04,9.02,7.17,2.09,3.13,3.13,7,3.13,11.61s-1.05,8.39-3.13,11.56c-2.09,3.16-5.1,5.56-9.02,7.2-3.92,1.63-8.59,2.45-14,2.45ZM1535.26,56.03c2.59,0,4.99-.28,7.2-.84,2.21-.56,4.14-1.41,5.79-2.57,1.65-1.15,2.94-2.63,3.85-4.42.92-1.79,1.37-3.88,1.37-6.27v-1.37c0-2.35-.46-4.41-1.37-6.18-.91-1.77-2.2-3.23-3.85-4.39-1.65-1.15-3.58-2.01-5.79-2.57-2.21-.56-4.61-.84-7.2-.84s-5.05.28-7.25.84c-2.21.56-4.14,1.41-5.79,2.57-1.65,1.15-2.93,2.62-3.82,4.39-.9,1.77-1.34,3.83-1.34,6.18v1.37c0,2.39.45,4.48,1.34,6.27.9,1.79,2.17,3.26,3.82,4.42,1.65,1.15,3.58,2.01,5.79,2.57,2.21.56,4.63.84,7.25.84Z"/>
    <path class="cls-1" d="M1600.82,62.54c-8.28,0-14.48-1.75-18.6-5.25-4.12-3.5-6.18-8.82-6.18-15.94,0-4.66,1.05-8.57,3.13-11.73,2.09-3.16,5.11-5.54,9.05-7.13,3.94-1.59,8.66-2.39,14.15-2.39,3.66,0,6.98.31,9.94.93,2.96.62,5.51,1.54,7.64,2.78,2.13,1.24,3.76,2.8,4.9,4.69,1.14,1.89,1.7,4.13,1.7,6.72h-7.52c0-1.67-.45-3.07-1.34-4.21-.9-1.13-2.12-2.02-3.67-2.66-1.55-.64-3.29-1.09-5.22-1.34-1.93-.26-3.97-.39-6.12-.39-2.63,0-5.08.26-7.34.78-2.27.52-4.26,1.33-5.97,2.45-1.71,1.12-3.05,2.56-4,4.33-.96,1.77-1.43,3.91-1.43,6.42v1.43c0,3.38.74,6.1,2.21,8.15,1.47,2.05,3.52,3.54,6.15,4.48,2.63.94,5.69,1.4,9.2,1.4,4.18,0,7.55-.4,10.12-1.19,2.57-.8,4.45-1.94,5.64-3.43,1.19-1.49,1.79-3.23,1.79-5.22v-.66h-17.61v-6.21h25.2v22.51h-4.96l-.84-5.73c-1.47,1.55-3.24,2.81-5.31,3.76-2.07.96-4.36,1.64-6.87,2.06-2.51.42-5.12.63-7.82.63Z"/>
    <path class="cls-1" d="M1643.15,17.52l6.99-7.94h8.36v.3l-9.32,7.64h-6.03ZM1644.35,61.82V20.8h7.7v41.02h-7.7Z"/>
    <path class="cls-1" d="M1665.78,61.82l20.72-41.02h8.78l20.72,41.02h-8.48l-4.42-8.84h-24.96l-4.42,8.84h-7.94ZM1681.25,46.66h18.75l-5.43-11.17c-.2-.44-.49-1.07-.87-1.88-.38-.82-.76-1.66-1.13-2.54-.38-.88-.73-1.65-1.05-2.33-.32-.68-.54-1.1-.66-1.26h-.48c-.36.8-.78,1.72-1.25,2.78-.48,1.05-.94,2.06-1.37,3.01s-.8,1.71-1.08,2.27l-5.43,11.11Z"/>
  </g>
  <g>
    <path class="cls-1" d="M1063.18,120.44v-16.78l-20.24-24.24h9.37l14.63,17.97h.6l14.81-17.97h8.84l-20.3,24.24v16.78h-7.7Z"/>
    <path class="cls-1" d="M1125.34,120.44v-41.02h40.9v6.51h-33.2v10.33h29.74v6.51h-29.74v11.17h33.68v6.51h-41.38Z"/>
    <path class="cls-1" d="M1202.73,121.16c-2.99,0-5.81-.18-8.48-.54-2.67-.36-5.01-1.02-7.04-1.97-2.03-.95-3.61-2.28-4.75-3.97-1.14-1.69-1.7-3.89-1.7-6.6v-.39c0-.14.02-.25.06-.33h7.64c-.04.16-.07.36-.09.6-.02.24-.03.52-.03.84,0,1.35.58,2.48,1.73,3.37,1.15.9,2.81,1.55,4.95,1.97,2.15.42,4.68.63,7.58.63,1.32,0,2.62-.06,3.91-.18,1.29-.12,2.52-.31,3.67-.57,1.15-.26,2.18-.6,3.08-1.02.9-.42,1.61-.95,2.15-1.58.53-.64.81-1.37.81-2.21,0-1.19-.48-2.16-1.43-2.9-.95-.74-2.25-1.33-3.88-1.79-1.63-.46-3.47-.84-5.52-1.13-2.05-.3-4.16-.62-6.33-.96-2.17-.34-4.27-.79-6.3-1.34-2.03-.56-3.86-1.27-5.49-2.15-1.63-.87-2.92-2.02-3.88-3.43-.95-1.41-1.43-3.15-1.43-5.22,0-1.79.43-3.39,1.28-4.81.86-1.41,2.14-2.63,3.85-3.64,1.71-1.02,3.86-1.79,6.45-2.33,2.59-.54,5.63-.81,9.14-.81s6.57.3,9.08.9c2.51.6,4.56,1.42,6.15,2.48,1.59,1.06,2.76,2.28,3.49,3.67.74,1.39,1.11,2.89,1.11,4.48v1.02h-7.53v-.96c0-.96-.49-1.82-1.46-2.6-.98-.78-2.35-1.4-4.12-1.88s-3.83-.72-6.18-.72c-3.07,0-5.57.21-7.53.63s-3.39.98-4.33,1.7c-.94.72-1.4,1.57-1.4,2.57s.47,1.88,1.4,2.54c.94.66,2.22,1.19,3.85,1.58,1.63.4,3.47.75,5.52,1.04,2.05.3,4.16.63,6.33.99,2.17.36,4.27.81,6.3,1.34,2.03.54,3.86,1.26,5.49,2.18,1.63.92,2.93,2.07,3.88,3.46.96,1.39,1.43,3.1,1.43,5.13,0,3.15-.91,5.66-2.72,7.55s-4.32,3.25-7.53,4.09c-3.2.84-6.94,1.26-11.19,1.26Z"/>
    <path class="cls-1" d="M1253.6,120.44v-34.21h-18.39v-6.81h44.49v6.81h-18.39v34.21h-7.7Z"/>
    <path class="cls-1" d="M1293.43,120.44v-41.02h40.9v6.51h-33.2v10.33h29.74v6.51h-29.74v11.17h33.68v6.51h-41.38ZM1309.07,76.08l6.93-7.88h8.42v.24l-9.32,7.64h-6.03Z"/>
    <path class="cls-1" d="M1365.08,120.44v-34.21h-18.39v-6.81h44.49v6.81h-18.39v34.21h-7.7Z"/>
    <path class="cls-1" d="M1404.91,120.44v-41.02h7.7v41.02h-7.7Z"/>
    <path class="cls-1" d="M1453.87,121.16c-5.45,0-10.03-.81-13.73-2.42-3.7-1.61-6.48-4-8.33-7.17-1.85-3.17-2.78-7.06-2.78-11.67,0-6.77,2.13-11.99,6.39-15.67,4.26-3.68,10.37-5.52,18.33-5.52,4.58,0,8.62.63,12.12,1.88,3.5,1.25,6.23,3.08,8.18,5.49,1.95,2.41,2.92,5.36,2.92,8.87h-7.58c0-2.23-.66-4.06-1.97-5.49-1.31-1.43-3.15-2.5-5.52-3.19-2.37-.7-5.15-1.05-8.33-1.05s-6.21.53-8.72,1.58c-2.51,1.06-4.46,2.62-5.85,4.69-1.39,2.07-2.09,4.62-2.09,7.64v1.49c0,3.1.71,5.7,2.12,7.79,1.41,2.09,3.38,3.65,5.91,4.69,2.53,1.03,5.46,1.55,8.81,1.55s6.07-.34,8.42-1.02c2.35-.68,4.17-1.74,5.46-3.2,1.29-1.45,1.94-3.25,1.94-5.4h7.46c0,3.43-.98,6.34-2.93,8.75-1.95,2.41-4.66,4.24-8.12,5.49-3.46,1.25-7.5,1.88-12.12,1.88Z"/>
    <path class="cls-1" d="M1488.92,120.44l20.72-41.02h8.78l20.72,41.02h-8.48l-4.42-8.84h-24.96l-4.42,8.84h-7.94ZM1504.39,105.28h18.75l-5.43-11.17c-.2-.44-.49-1.07-.87-1.88-.38-.82-.76-1.66-1.13-2.54-.38-.88-.73-1.65-1.05-2.33-.32-.68-.54-1.1-.66-1.26h-.48c-.36.8-.78,1.72-1.25,2.78-.48,1.05-.94,2.06-1.37,3.01-.44.96-.8,1.71-1.08,2.27l-5.43,11.11Z"/>
  </g>
  <line class="cls-2" x1="992.09" y1="19.49" x2="992.09" y2="119.13"/>
</svg>